<svg xmlns="http://www.w3.org/2000/svg" xmlns:xlink="http://www.w3.org/1999/xlink" width="500" zoomAndPan="magnify" viewBox="0 0 375 374.999991" height="500" preserveAspectRatio="xMidYMid meet" version="1.2"><defs><clipPath id="4c6413f542"><path d="M 131 198 L 172.074219 198 L 172.074219 227 L 131 227 Z M 131 198 "/></clipPath></defs><g id="e66a93e0dd"><path style=" stroke:none;fill-rule:evenodd;fill:#ffa500;fill-opacity:1;" d="M 156.664062 172.433594 C 158.269531 166.945312 155.605469 166.042969 152.25 170.652344 L 148.367188 178.171875 L 141.324219 178.488281 L 141.621094 177.890625 C 141.835938 177.464844 141.65625 176.9375 141.234375 176.726562 C 140.8125 176.53125 140.296875 176.6875 140.085938 177.113281 L 139.363281 178.578125 L 130.960938 178.964844 L 129.8125 181.136719 L 145.3125 184.402344 L 141.039062 194.023438 L 135.320312 194.464844 L 134.421875 196.003906 L 140.371094 197.34375 C 140.050781 197.996094 140.28125 198.542969 140.511719 199.054688 C 141.234375 199.039062 141.550781 198.738281 141.941406 198.191406 L 146.355469 202.058594 L 147.183594 200.609375 L 144.128906 195.507812 L 149.53125 186.417969 L 161.199219 196.847656 L 162.242188 194.820312 L 158.003906 188.359375 L 158.023438 188.324219 L 158.816406 186.714844 C 159.027344 186.292969 158.851562 185.78125 158.429688 185.570312 C 158.003906 185.355469 157.492188 185.535156 157.28125 185.957031 L 156.929688 186.679688 L 152.691406 180.203125 Z M 156.664062 172.433594 "/><g clip-rule="nonzero" clip-path="url(#4c6413f542)"><path style=" stroke:none;fill-rule:evenodd;fill:#ffa500;fill-opacity:1;" d="M 135.460938 198.472656 L 138.976562 200.152344 C 126.441406 224.601562 154.457031 227.8125 172.074219 224.933594 C 151.472656 230.214844 121.074219 224.601562 135.460938 198.472656 Z M 135.460938 198.472656 "/></g><path style=" stroke:none;fill-rule:evenodd;fill:#ffa500;fill-opacity:1;" d="M 141.25 201.527344 L 144.183594 202.90625 C 133.785156 223.207031 157.015625 225.871094 171.652344 223.46875 C 154.5625 227.867188 129.320312 223.207031 141.25 201.527344 Z M 141.25 201.527344 "/><g style="fill:#ffffff;fill-opacity:1;"><g transform="translate(163.416702, 217.703247)"><path style="stroke:none" d="M 8.09375 0 L 8.09375 -20.875 L 1.21875 -20.875 L 1.21875 -24.515625 L 18.9375 -24.515625 L 18.9375 -20.875 L 11.875 -20.875 L 11.875 0 Z M 8.09375 0 "/></g></g><g style="fill:#ffffff;fill-opacity:1;"><g transform="translate(182.983751, 217.703247)"><path style="stroke:none" d="M 21.609375 -16.703125 C 21.609375 -15.234375 21.171875 -13.867188 20.296875 -12.609375 C 19.421875 -11.347656 18.28125 -10.410156 16.875 -9.796875 L 22.578125 0.03125 L 18 0 L 12.8125 -9.203125 L 7.21875 -9.203125 L 7.21875 0 L 3.4375 0 L 3.4375 -24.515625 L 13.859375 -24.515625 C 15.148438 -24.515625 16.382812 -24.195312 17.5625 -23.5625 C 18.738281 -22.9375 19.707031 -22.039062 20.46875 -20.875 C 21.226562 -19.707031 21.609375 -18.316406 21.609375 -16.703125 Z M 13.234375 -20.875 L 7.21875 -20.875 L 7.21875 -12.84375 L 14.21875 -12.84375 C 15.332031 -12.84375 16.195312 -13.238281 16.8125 -14.03125 C 17.4375 -14.832031 17.75 -15.734375 17.75 -16.734375 C 17.75 -18.015625 17.304688 -19.023438 16.421875 -19.765625 C 15.535156 -20.503906 14.472656 -20.875 13.234375 -20.875 Z M 13.234375 -20.875 "/></g></g><g style="fill:#ffffff;fill-opacity:1;"><g transform="translate(206.716267, 217.703247)"><path style="stroke:none" d="M 19.609375 0 L 17.296875 -6.09375 L 7.03125 -6.09375 L 4.734375 0 L 0.875 0 L 10.359375 -24.515625 L 14.21875 -24.515625 L 23.640625 0 Z M 10.296875 -14.640625 L 8.4375 -9.734375 L 15.9375 -9.734375 L 14 -14.78125 C 13.695312 -15.59375 13.394531 -16.472656 13.09375 -17.421875 C 12.789062 -18.367188 12.488281 -19.320312 12.1875 -20.28125 C 11.851562 -19.289062 11.53125 -18.304688 11.21875 -17.328125 C 10.90625 -16.347656 10.597656 -15.453125 10.296875 -14.640625 Z M 10.296875 -14.640625 "/></g></g><g style="fill:#ffffff;fill-opacity:1;"><g transform="translate(230.623797, 217.703247)"><path style="stroke:none" d="M 24.203125 -24.515625 L 14.328125 0 L 10.640625 0 L 0.84375 -24.515625 L 5.140625 -24.515625 L 11 -9.625 C 11.300781 -8.832031 11.597656 -8.050781 11.890625 -7.28125 C 12.179688 -6.507812 12.453125 -5.726562 12.703125 -4.9375 C 12.960938 -5.726562 13.234375 -6.515625 13.515625 -7.296875 C 13.796875 -8.078125 14.078125 -8.851562 14.359375 -9.625 L 19.78125 -24.515625 Z M 24.203125 -24.515625 "/></g></g><g style="fill:#ffffff;fill-opacity:1;"><g transform="translate(255.056393, 217.703247)"><path style="stroke:none" d="M 3.4375 -24.515625 L 18.875 -24.515625 L 18.875 -20.875 L 7.21875 -20.875 L 7.21875 -14.390625 L 16.953125 -14.390625 L 16.953125 -10.75 L 7.21875 -10.75 L 7.21875 -3.640625 L 18.875 -3.640625 L 18.875 0 L 3.4375 0 Z M 3.4375 -24.515625 "/></g></g><g style="fill:#ffffff;fill-opacity:1;"><g transform="translate(275.953589, 217.703247)"><path style="stroke:none" d="M 18.703125 -3.640625 L 18.703125 0 L 3.4375 0 L 3.4375 -24.515625 L 7.21875 -24.515625 L 7.21875 -3.640625 Z M 18.703125 -3.640625 "/></g></g><g style="fill:#ffde59;fill-opacity:1;"><g transform="translate(190.692121, 227.587514)"><path style="stroke:none" d="M 4.140625 -6.78125 L 4.140625 -6.078125 L 2.484375 -6.078125 L 2.484375 0 L 1.734375 0 L 1.734375 -6.078125 L 0.09375 -6.078125 L 0.09375 -6.78125 Z M 4.140625 -6.78125 "/></g></g><g style="fill:#ffde59;fill-opacity:1;"><g transform="translate(194.922154, 227.587514)"><path style="stroke:none" d="M 0.34375 -3.390625 C 0.34375 -4.003906 0.5 -4.582031 0.8125 -5.125 C 1.125 -5.664062 1.550781 -6.097656 2.09375 -6.421875 C 2.644531 -6.742188 3.238281 -6.90625 3.875 -6.90625 C 4.507812 -6.90625 5.097656 -6.75 5.640625 -6.4375 C 6.179688 -6.125 6.613281 -5.691406 6.9375 -5.140625 C 7.257812 -4.597656 7.421875 -4.015625 7.421875 -3.390625 C 7.421875 -2.765625 7.257812 -2.179688 6.9375 -1.640625 C 6.625 -1.097656 6.195312 -0.671875 5.65625 -0.359375 C 5.113281 -0.046875 4.519531 0.109375 3.875 0.109375 C 3.25 0.109375 2.660156 -0.0390625 2.109375 -0.34375 C 1.566406 -0.65625 1.132812 -1.082031 0.8125 -1.625 C 0.5 -2.175781 0.34375 -2.765625 0.34375 -3.390625 Z M 3.875 -6.203125 C 3.363281 -6.203125 2.894531 -6.070312 2.46875 -5.8125 C 2.050781 -5.550781 1.71875 -5.207031 1.46875 -4.78125 C 1.21875 -4.351562 1.09375 -3.890625 1.09375 -3.390625 C 1.09375 -2.890625 1.21875 -2.421875 1.46875 -1.984375 C 1.726562 -1.554688 2.070312 -1.210938 2.5 -0.953125 C 2.925781 -0.703125 3.382812 -0.578125 3.875 -0.578125 C 4.375 -0.578125 4.84375 -0.707031 5.28125 -0.96875 C 5.71875 -1.226562 6.054688 -1.570312 6.296875 -2 C 6.535156 -2.4375 6.65625 -2.898438 6.65625 -3.390625 C 6.65625 -3.898438 6.53125 -4.367188 6.28125 -4.796875 C 6.03125 -5.234375 5.691406 -5.578125 5.265625 -5.828125 C 4.835938 -6.078125 4.375 -6.203125 3.875 -6.203125 Z M 3.875 -6.203125 "/></g></g><g style="fill:#ffde59;fill-opacity:1;"><g transform="translate(202.680207, 227.587514)"><path style="stroke:none" d="M 1.421875 -6.78125 L 1.421875 -2.59375 C 1.421875 -2.03125 1.484375 -1.628906 1.609375 -1.390625 C 1.734375 -1.148438 1.9375 -0.953125 2.21875 -0.796875 C 2.5 -0.648438 2.789062 -0.578125 3.09375 -0.578125 C 3.375 -0.578125 3.632812 -0.640625 3.875 -0.765625 C 4.125 -0.898438 4.304688 -1.039062 4.421875 -1.1875 C 4.546875 -1.34375 4.628906 -1.519531 4.671875 -1.71875 C 4.722656 -1.914062 4.75 -2.21875 4.75 -2.625 L 4.75 -6.78125 L 5.515625 -6.78125 L 5.515625 -2.453125 C 5.515625 -2.015625 5.46875 -1.65625 5.375 -1.375 C 5.28125 -1.101562 5.113281 -0.847656 4.875 -0.609375 C 4.644531 -0.378906 4.375 -0.203125 4.0625 -0.078125 C 3.75 0.046875 3.425781 0.109375 3.09375 0.109375 C 2.664062 0.109375 2.265625 0.0078125 1.890625 -0.1875 C 1.515625 -0.382812 1.21875 -0.648438 1 -0.984375 C 0.78125 -1.328125 0.671875 -1.820312 0.671875 -2.46875 L 0.671875 -6.78125 Z M 1.421875 -6.78125 "/></g></g><g style="fill:#ffde59;fill-opacity:1;"><g transform="translate(208.845253, 227.587514)"><path style="stroke:none" d="M 1.71875 -6.78125 C 3.34375 -6.78125 4.15625 -6.15625 4.15625 -4.90625 C 4.15625 -4.382812 4 -3.953125 3.6875 -3.609375 C 3.382812 -3.273438 2.972656 -3.085938 2.453125 -3.046875 L 4.609375 0 L 3.6875 0 L 1.625 -2.984375 L 1.4375 -2.984375 L 1.4375 0 L 0.6875 0 L 0.6875 -6.78125 Z M 1.4375 -3.640625 L 1.765625 -3.640625 C 2.304688 -3.640625 2.710938 -3.738281 2.984375 -3.9375 C 3.253906 -4.132812 3.390625 -4.441406 3.390625 -4.859375 C 3.390625 -5.304688 3.253906 -5.617188 2.984375 -5.796875 C 2.722656 -5.984375 2.34375 -6.078125 1.84375 -6.078125 L 1.4375 -6.078125 Z M 1.4375 -3.640625 "/></g></g><g style="fill:#ffde59;fill-opacity:1;"><g transform="translate(213.723285, 227.587514)"><path style="stroke:none" d=""/></g></g><g style="fill:#ffde59;fill-opacity:1;"><g transform="translate(216.495307, 227.587514)"><path style="stroke:none" d="M 3.15625 -3.875 L 4.578125 -2.046875 L 5.34375 -2.9375 L 5.890625 -2.5 L 5.03125 -1.484375 L 6.1875 0 L 5.234375 0 L 4.5 -0.953125 C 4.082031 -0.578125 3.695312 -0.304688 3.34375 -0.140625 C 3 0.0234375 2.660156 0.109375 2.328125 0.109375 C 1.972656 0.109375 1.644531 0.03125 1.34375 -0.125 C 1.050781 -0.289062 0.8125 -0.515625 0.625 -0.796875 C 0.4375 -1.085938 0.34375 -1.410156 0.34375 -1.765625 C 0.34375 -2.066406 0.40625 -2.335938 0.53125 -2.578125 C 0.65625 -2.816406 0.820312 -3.035156 1.03125 -3.234375 C 1.238281 -3.429688 1.59375 -3.691406 2.09375 -4.015625 C 1.894531 -4.285156 1.734375 -4.53125 1.609375 -4.75 C 1.484375 -4.976562 1.421875 -5.21875 1.421875 -5.46875 C 1.421875 -5.875 1.5625 -6.210938 1.84375 -6.484375 C 2.125 -6.765625 2.476562 -6.90625 2.90625 -6.90625 C 3.3125 -6.90625 3.648438 -6.773438 3.921875 -6.515625 C 4.203125 -6.253906 4.34375 -5.941406 4.34375 -5.578125 C 4.34375 -5.242188 4.242188 -4.945312 4.046875 -4.6875 C 3.859375 -4.4375 3.5625 -4.164062 3.15625 -3.875 Z M 2.71875 -4.421875 L 3.03125 -4.65625 C 3.28125 -4.84375 3.441406 -5.003906 3.515625 -5.140625 C 3.585938 -5.273438 3.625 -5.421875 3.625 -5.578125 C 3.625 -5.773438 3.550781 -5.9375 3.40625 -6.0625 C 3.257812 -6.195312 3.082031 -6.265625 2.875 -6.265625 C 2.675781 -6.265625 2.503906 -6.191406 2.359375 -6.046875 C 2.210938 -5.898438 2.140625 -5.722656 2.140625 -5.515625 C 2.140625 -5.316406 2.222656 -5.109375 2.390625 -4.890625 Z M 4.046875 -1.515625 L 2.53125 -3.46875 C 2.3125 -3.3125 2.09375 -3.15625 1.875 -3 C 1.664062 -2.851562 1.484375 -2.675781 1.328125 -2.46875 C 1.171875 -2.269531 1.09375 -2.046875 1.09375 -1.796875 C 1.09375 -1.472656 1.210938 -1.1875 1.453125 -0.9375 C 1.691406 -0.6875 1.96875 -0.5625 2.28125 -0.5625 C 2.539062 -0.5625 2.804688 -0.632812 3.078125 -0.78125 C 3.347656 -0.9375 3.671875 -1.179688 4.046875 -1.515625 Z M 4.046875 -1.515625 "/></g></g><g style="fill:#ffde59;fill-opacity:1;"><g transform="translate(222.75035, 227.587514)"><path style="stroke:none" d=""/></g></g><g style="fill:#ffde59;fill-opacity:1;"><g transform="translate(225.522372, 227.587514)"><path style="stroke:none" d="M 4.140625 -6.78125 L 4.140625 -6.078125 L 2.484375 -6.078125 L 2.484375 0 L 1.734375 0 L 1.734375 -6.078125 L 0.09375 -6.078125 L 0.09375 -6.78125 Z M 4.140625 -6.78125 "/></g></g><g style="fill:#ffde59;fill-opacity:1;"><g transform="translate(229.752406, 227.587514)"><path style="stroke:none" d="M 1.71875 -6.78125 C 3.34375 -6.78125 4.15625 -6.15625 4.15625 -4.90625 C 4.15625 -4.382812 4 -3.953125 3.6875 -3.609375 C 3.382812 -3.273438 2.972656 -3.085938 2.453125 -3.046875 L 4.609375 0 L 3.6875 0 L 1.625 -2.984375 L 1.4375 -2.984375 L 1.4375 0 L 0.6875 0 L 0.6875 -6.78125 Z M 1.4375 -3.640625 L 1.765625 -3.640625 C 2.304688 -3.640625 2.710938 -3.738281 2.984375 -3.9375 C 3.253906 -4.132812 3.390625 -4.441406 3.390625 -4.859375 C 3.390625 -5.304688 3.253906 -5.617188 2.984375 -5.796875 C 2.722656 -5.984375 2.34375 -6.078125 1.84375 -6.078125 L 1.4375 -6.078125 Z M 1.4375 -3.640625 "/></g></g><g style="fill:#ffde59;fill-opacity:1;"><g transform="translate(234.630438, 227.587514)"><path style="stroke:none" d="M 3.1875 -7.109375 L 6.234375 0 L 5.40625 0 L 4.59375 -1.921875 L 1.703125 -1.921875 L 0.875 0 L 0.046875 0 Z M 2 -2.625 L 4.296875 -2.625 L 3.171875 -5.34375 Z M 1.21875 -6.78125 Z M 1.21875 -6.78125 "/></g></g><g style="fill:#ffde59;fill-opacity:1;"><g transform="translate(240.921484, 227.587514)"><path style="stroke:none" d="M 0.875 -6.78125 L 2.8125 -1.609375 L 4.75 -6.78125 L 5.5625 -6.78125 L 2.8125 0.40625 L 0.046875 -6.78125 Z M 0.9375 0 Z M 0.9375 0 "/></g></g><g style="fill:#ffde59;fill-opacity:1;"><g transform="translate(246.537523, 227.587514)"><path style="stroke:none" d="M 4.203125 -6.78125 L 4.203125 -6.078125 L 1.4375 -6.078125 L 1.4375 -4.0625 L 4.125 -4.0625 L 4.125 -3.359375 L 1.4375 -3.359375 L 1.4375 -0.703125 L 4.203125 -0.703125 L 4.203125 0 L 0.6875 0 L 0.6875 -6.78125 Z M 4.203125 -6.78125 "/></g></g><g style="fill:#ffde59;fill-opacity:1;"><g transform="translate(251.34356, 227.587514)"><path style="stroke:none" d="M 1.4375 -6.78125 L 1.4375 -0.703125 L 3.3125 -0.703125 L 3.3125 0 L 0.6875 0 L 0.6875 -6.78125 Z M 1.4375 -6.78125 "/></g></g><g style="fill:#ffde59;fill-opacity:1;"><g transform="translate(254.718583, 227.587514)"><path style="stroke:none" d=""/></g></g><g style="fill:#ffde59;fill-opacity:1;"><g transform="translate(257.490605, 227.587514)"><path style="stroke:none" d="M 3.1875 -7.109375 L 6.234375 0 L 5.40625 0 L 4.59375 -1.921875 L 1.703125 -1.921875 L 0.875 0 L 0.046875 0 Z M 2 -2.625 L 4.296875 -2.625 L 3.171875 -5.34375 Z M 1.21875 -6.78125 Z M 1.21875 -6.78125 "/></g></g><g style="fill:#ffde59;fill-opacity:1;"><g transform="translate(263.781651, 227.587514)"><path style="stroke:none" d="M 6.140625 -4.921875 C 5.859375 -5.328125 5.523438 -5.640625 5.140625 -5.859375 C 4.753906 -6.085938 4.3125 -6.203125 3.8125 -6.203125 C 3.320312 -6.203125 2.863281 -6.070312 2.4375 -5.8125 C 2.007812 -5.550781 1.671875 -5.203125 1.421875 -4.765625 C 1.171875 -4.335938 1.046875 -3.867188 1.046875 -3.359375 C 1.046875 -2.859375 1.175781 -2.390625 1.4375 -1.953125 C 1.707031 -1.523438 2.050781 -1.1875 2.46875 -0.9375 C 2.894531 -0.695312 3.328125 -0.578125 3.765625 -0.578125 C 4.171875 -0.578125 4.554688 -0.671875 4.921875 -0.859375 C 5.296875 -1.046875 5.597656 -1.300781 5.828125 -1.625 C 6.066406 -1.945312 6.1875 -2.304688 6.1875 -2.703125 L 4.171875 -2.703125 L 4.171875 -3.40625 L 7 -3.40625 L 7 -3.03125 C 7 -2.582031 6.921875 -2.164062 6.765625 -1.78125 C 6.617188 -1.40625 6.390625 -1.070312 6.078125 -0.78125 C 5.765625 -0.5 5.410156 -0.28125 5.015625 -0.125 C 4.617188 0.03125 4.207031 0.109375 3.78125 0.109375 C 3.164062 0.109375 2.585938 -0.0390625 2.046875 -0.34375 C 1.503906 -0.65625 1.070312 -1.082031 0.75 -1.625 C 0.4375 -2.175781 0.28125 -2.757812 0.28125 -3.375 C 0.28125 -4 0.441406 -4.582031 0.765625 -5.125 C 1.085938 -5.675781 1.519531 -6.109375 2.0625 -6.421875 C 2.613281 -6.742188 3.203125 -6.90625 3.828125 -6.90625 C 4.421875 -6.90625 4.953125 -6.773438 5.421875 -6.515625 C 5.898438 -6.265625 6.328125 -5.90625 6.703125 -5.4375 Z M 6.140625 -4.921875 "/></g></g><g style="fill:#ffde59;fill-opacity:1;"><g transform="translate(271.161705, 227.587514)"><path style="stroke:none" d="M 4.203125 -6.78125 L 4.203125 -6.078125 L 1.4375 -6.078125 L 1.4375 -4.0625 L 4.125 -4.0625 L 4.125 -3.359375 L 1.4375 -3.359375 L 1.4375 -0.703125 L 4.203125 -0.703125 L 4.203125 0 L 0.6875 0 L 0.6875 -6.78125 Z M 4.203125 -6.78125 "/></g></g><g style="fill:#ffde59;fill-opacity:1;"><g transform="translate(275.967742, 227.587514)"><path style="stroke:none" d="M 0.734375 -7.078125 L 6.015625 -1.53125 L 6.015625 -6.78125 L 6.78125 -6.78125 L 6.78125 0.3125 L 1.484375 -5.234375 L 1.484375 0 L 0.734375 0 Z M 0.734375 -7.078125 "/></g></g><g style="fill:#ffde59;fill-opacity:1;"><g transform="translate(283.473796, 227.587514)"><path style="stroke:none" d="M 5.859375 -5.296875 C 5.566406 -5.585938 5.242188 -5.8125 4.890625 -5.96875 C 4.535156 -6.125 4.164062 -6.203125 3.78125 -6.203125 C 3.300781 -6.203125 2.847656 -6.070312 2.421875 -5.8125 C 2.003906 -5.550781 1.671875 -5.203125 1.421875 -4.765625 C 1.171875 -4.335938 1.046875 -3.878906 1.046875 -3.390625 C 1.046875 -2.910156 1.171875 -2.453125 1.421875 -2.015625 C 1.671875 -1.578125 2.007812 -1.226562 2.4375 -0.96875 C 2.863281 -0.707031 3.320312 -0.578125 3.8125 -0.578125 C 4.175781 -0.578125 4.535156 -0.65625 4.890625 -0.8125 C 5.242188 -0.96875 5.566406 -1.191406 5.859375 -1.484375 L 5.859375 -0.546875 C 5.566406 -0.335938 5.242188 -0.175781 4.890625 -0.0625 C 4.546875 0.0507812 4.191406 0.109375 3.828125 0.109375 C 3.234375 0.109375 2.660156 -0.0351562 2.109375 -0.328125 C 1.554688 -0.628906 1.113281 -1.050781 0.78125 -1.59375 C 0.457031 -2.132812 0.296875 -2.722656 0.296875 -3.359375 C 0.296875 -3.992188 0.453125 -4.582031 0.765625 -5.125 C 1.085938 -5.675781 1.519531 -6.109375 2.0625 -6.421875 C 2.613281 -6.742188 3.203125 -6.90625 3.828125 -6.90625 C 4.210938 -6.90625 4.585938 -6.84375 4.953125 -6.71875 C 5.328125 -6.59375 5.628906 -6.429688 5.859375 -6.234375 Z M 5.859375 -5.296875 "/></g></g><g style="fill:#ffde59;fill-opacity:1;"><g transform="translate(289.926844, 227.587514)"><path style="stroke:none" d="M 0.9375 -6.78125 L 2.671875 -3.765625 L 4.40625 -6.78125 L 5.28125 -6.78125 L 3.046875 -2.921875 L 3.046875 0 L 2.296875 0 L 2.296875 -2.921875 L 0.078125 -6.78125 Z M 0.9375 -6.78125 "/></g></g></g></svg>